:SAMPLES-PER-SECOND 30
:FULLY-SPECIFIED
:DEGREES
43
root  1.84758 40.4032 5.86321 -138.885 -88.8251 134.927
RightUpLeg  2.22767 -8.72942 -9.92943
RightLeg  0.2978 -0.55734 -0.505657
RightFoot  4.77413 -1.58714 11.4086
RightToes  -1.16417e-010 0 -3.6325e-017
Spine  6.4778 0.619496 0.431452
Spine1  4.49342 1.40992 -3.97521
HEad  -2.44008 -4.43309 0.701266
LeftShoulder1  2.65702 -6.31867 -20.6466
LeftArm  1.26553 3.86314 -51.4489
LeftForeArm  9.06856 -5.32811 -14.7169
LeftHand  -0.308281 1.99113 10.4419
RightShoulder  1.56771 2.79779 18.4021
RightArm  -0.729935 -1.66657 57.1873
RightForeArm  30.9046 1.07089 15.4581
RightHand  -0.31684 -2.39186 -11.9847
LeftUpLeg  2.88532 7.37796 2.19617
LeftLeg  4.72585 5.75402 0.914023
LeftFoot  -2.84359 0.508322 -6.63542
LeftToes  6.91183e-011 3.39355e-011 2.1261e-011
44
root  1.81327 40.4053 5.84247 -122.242 -89.03 118.409
RightUpLeg  2.29127 -8.72134 -9.91677
RightLeg  0.198664 -0.936302 -0.544461
RightFoot  4.70137 -1.58896 11.47
RightToes  -1.16417e-010 0 -3.6325e-017
Spine  6.38718 0.591781 0.457004
Spine1  4.43341 1.36044 -3.8447
HEad  -2.4692 -4.45179 0.745118
LeftShoulder1  2.69225 -6.41095 -20.7579
LeftArm  1.08257 3.87689 -51.314
LeftForeArm  9.18208 -5.30165 -14.6907
LeftHand  -0.304222 1.93184 10.5033
RightShoulder  1.5649 2.77003 18.4732
RightArm  0.662879 -2.11869 57.177
RightForeArm  30.3029 1.5095 15.5796
RightHand  -0.313328 -2.38577 -11.8233
LeftUpLeg  2.73146 7.15853 2.08124
LeftLeg  4.74376 5.6511 1.05314
LeftFoot  -2.84546 0.507642 -6.62116
LeftToes  6.91183e-011 3.39355e-011 2.1261e-011
45
root  1.78876 40.4101 5.83329 -101.096 -89.1178 97.3588
RightUpLeg  2.41643 -8.80933 -9.98572
RightLeg  0.0288213 -1.1392 -0.498054
RightFoot  4.69692 -1.59275 11.4997
RightToes  -1.16417e-010 0 -3.6325e-017
Spine  6.32362 0.550528 0.556873
Spine1  4.5093 1.32024 -3.77161
HEad  -2.6065 -4.44759 0.765336
LeftShoulder1  2.70183 -6.47642 -20.6699
LeftArm  1.33999 3.90949 -51.4583
LeftForeArm  8.85879 -5.5172 -14.6659
LeftHand  -0.301929 2.03847 10.5765
RightShoulder  1.55967 2.71787 18.6095
RightArm  3.3103 -2.58086 57.0614
RightForeArm  28.7586 2.8433 15.6319
RightHand  -0.309143 -2.41565 -11.7741
LeftUpLeg  2.57207 6.92927 1.95012
LeftLeg  4.81027 5.58811 1.19819
LeftFoot  -2.88048 0.50461 -6.5586
LeftToes  6.91183e-011 3.39355e-011 2.1261e-011
46
root  1.76444 40.4154 5.83799 -87.4001 -89.0592 83.7289
RightUpLeg  2.5411 -9.01103 -10.1646
RightLeg  -0.149958 -1.21307 -0.366652
RightFoot  4.74181 -1.5958 11.4909
RightToes  -1.16417e-010 0 -3.6325e-017
Spine  6.3016 0.536712 0.65436
Spine1  4.64239 1.30361 -3.64726
HEad  -2.82733 -4.31886 0.709143
LeftShoulder1  2.6803 -6.42299 -20.5939
LeftArm  2.01505 3.90685 -51.7345
LeftForeArm  8.48171 -5.78838 -14.6791
LeftHand  -0.310978 2.00595 10.4805
RightShoulder  1.55047 2.66588 18.6774
RightArm  6.73836 -2.98845 56.9386
RightForeArm  26.3541 4.63596 15.5414
RightHand  -0.299804 -2.53103 -11.8528
LeftUpLeg  2.49358 6.71927 1.78906
LeftLeg  4.8326 5.58063 1.29288
LeftFoot  -2.8878 0.51241 -6.65918
LeftToes  6.91183e-011 3.39355e-011 2.1261e-011
47
root  1.73858 40.4188 5.85587 -86.5611 -88.9769 83.0297
RightUpLeg  2.55782 -9.20356 -10.3468
RightLeg  -0.389892 -1.17732 -0.237361
RightFoot  4.81608 -1.60902 11.5336
RightToes  -1.16417e-010 0 -3.6325e-017
Spine  6.26879 0.543431 0.806467
Spine1  4.6824 1.3157 -3.56031
HEad  -3.04102 -3.95928 0.615747
LeftShoulder1  2.64495 -6.27526 -20.6432
LeftArm  2.66718 3.90811 -52.0026
LeftForeArm  8.3762 -5.85726 -14.7463
LeftHand  -0.325274 1.85252 10.532
RightShoulder  1.54604 2.64511 18.6916
RightArm  9.28176 -3.24115 56.778
RightForeArm  24.3924 5.99816 15.344
RightHand  -0.30857 -2.47392 -11.9795
LeftUpLeg  2.40192 6.53932 1.60523
LeftLeg  4.77567 5.75373 1.33827
LeftFoot  -2.83949 0.51935 -6.74519
LeftToes  6.91183e-011 3.39355e-011 2.1261e-011
48
root  1.71805 40.421 5.88468 -91.0363 -88.9187 87.7266
RightUpLeg  2.47981 -9.26086 -10.4443
RightLeg  -0.686952 -1.01264 -0.214239
RightFoot  4.90074 -1.63966 11.6899
RightToes  -1.16417e-010 0 -3.6325e-017
Spine  6.21938 0.550567 0.9822
Spine1  4.63159 1.33099 -3.52892
HEad  -3.22581 -3.49996 0.571105
LeftShoulder1  2.62497 -6.17426 -20.7239
LeftArm  3.18376 4.01805 -52.2852
LeftForeArm  8.13285 -5.91753 -14.8037
LeftHand  -0.326484 1.9069 10.7325
RightShoulder  1.5573 2.66682 18.7931
RightArm  10.231 -3.29292 56.4191
RightForeArm  23.6034 6.70818 15.1431
RightHand  -0.3403 -2.16648 -12.0233
LeftUpLeg  2.21217 6.39358 1.42844
LeftLeg  4.73968 6.09692 1.37923
LeftFoot  -2.83285 0.510209 -6.58367
LeftToes  6.91183e-011 3.39355e-011 2.1261e-011
49
root  1.7003 40.4224 5.9229 -92.8476 -88.8395 89.7006
RightUpLeg  2.46368 -9.2919 -10.5724
RightLeg  -0.949366 -0.877611 -0.235591
RightFoot  4.97864 -1.67116 11.8551
RightToes  -1.16417e-010 0 -3.6325e-017
Spine  6.19958 0.553429 0.988428
Spine1  4.6416 1.29875 -3.35447
HEad  -3.43071 -3.11818 0.529942
LeftShoulder1  2.64399 -6.21767 -20.8035
LeftArm  4.21265 4.21578 -52.5668
LeftForeArm  7.4217 -6.3236 -14.8064
LeftHand  -0.310797 2.00675 10.4949
RightShoulder  1.57512 2.69594 18.9759
RightArm  11.3621 -3.20946 55.9167
RightForeArm  22.5466 7.52388 14.8962
RightHand  -0.349146 -2.06283 -11.9697
LeftUpLeg  2.05426 6.25976 1.2421
LeftLeg  4.76526 6.32825 1.42045
LeftFoot  -2.89306 0.503137 -6.46376
LeftToes  6.91183e-011 3.39355e-011 2.1261e-011
50
root  1.67411 40.4221 5.97337 -90.4246 -88.7168 87.3336
RightUpLeg  2.56262 -9.48704 -10.8622
RightLeg  -1.14424 -0.873427 -0.140578
RightFoot  5.03754 -1.68543 11.9132
RightToes  -1.16417e-010 0 -3.6325e-017
Spine  6.19098 0.528266 0.805014
Spine1  4.75043 1.18966 -2.98842
HEad  -3.63728 -2.71599 0.347402
LeftShoulder1  2.68473 -6.32265 -20.9364
LeftArm  6.23755 4.34541 -52.7767
LeftForeArm  6.46405 -6.9404 -14.8316
LeftHand  -0.305658 1.87638 9.94241
RightShoulder  1.58609 2.70988 19.1052
RightArm  14.2474 -3.10379 55.4905
RightForeArm  19.9079 8.95115 14.5091
RightHand  -0.313579 -2.41287 -11.94
LeftUpLeg  2.05635 6.1107 1.00178
LeftLeg  4.72417 6.3409 1.42835
LeftFoot  -2.88425 0.513298 -6.62776
LeftToes  6.91183e-011 3.39355e-011 2.1261e-011
51
root  1.64066 40.42 6.04009 -88.9497 -88.5889 85.9335
RightUpLeg  2.59152 -9.74099 -11.1953
RightLeg  -1.24089 -0.737487 0.00040557
RightFoot  5.04957 -1.69519 11.9721
RightToes  -1.16417e-010 0 -3.6325e-017
Spine  6.15158 0.461797 0.62073
Spine1  4.79576 1.03361 -2.61883
HEad  -3.79555 -2.09187 -0.0238953
LeftShoulder1  2.70155 -6.34152 -21.0629
LeftArm  9.03505 4.32963 -52.9868
LeftForeArm  5.09637 -7.47033 -14.9647
LeftHand  -0.295286 2.00901 9.9766
RightShoulder  1.59854 2.73357 19.2159
RightArm  18.7225 -3.10317 55.0685
RightForeArm  16.219 11.006 13.7638
RightHand  -0.280234 -2.69583 -11.7199
LeftUpLeg  2.10859 5.94295 0.708557
LeftLeg  4.54918 6.49935 1.43632
LeftFoot  -2.80269 0.513955 -6.66121
LeftToes  6.91183e-011 3.39355e-011 2.1261e-011
52
root  1.6132 40.4154 6.12089 -90.7389 -88.4802 87.8436
RightUpLeg  2.41488 -9.81279 -11.4149
RightLeg  -1.08292 -0.368415 -0.0496139
RightFoot  4.95387 -1.71345 12.1648
RightToes  -1.16417e-010 0 -3.6325e-017
Spine  6.16576 0.395349 0.372487
Spine1  4.69468 0.848477 -2.16837
HEad  -4.03784 -1.2864 -0.541076
LeftShoulder1  2.69453 -6.29929 -21.1125
LeftArm  13.609 4.15575 -53.3115
LeftForeArm  2.2895 -8.39966 -15.1023
LeftHand  -0.239127 2.80496 10.3657
RightShoulder  1.62052 2.76471 19.457
RightArm  25.9269 -3.42479 54.3617
RightForeArm  11.1834 14.4565 11.7021
RightHand  -0.255738 -2.67617 -10.5694
LeftUpLeg  2.07843 5.75164 0.381191
LeftLeg  4.43301 6.98441 1.52082
LeftFoot  -2.88556 0.486865 -6.34731
LeftToes  6.91183e-011 3.39355e-011 2.1261e-011
53
root  1.5943 40.4005 6.21257 -90.1962 -88.3765 87.2991
RightUpLeg  2.21783 -9.77016 -11.5986
RightLeg  -0.610436 -0.276433 -0.250961
RightFoot  4.70904 -1.7214 12.3951
RightToes  -1.16417e-010 0 -3.6325e-017
Spine  6.36402 0.324011 -0.184768
Spine1  4.61907 0.543104 -1.28081
HEad  -4.66955 -0.435905 -1.22709
LeftShoulder1  2.7193 -6.36974 -21.1706
LeftArm  24.9595 3.67095 -53.7323
LeftForeArm  -4.05032 -11.2973 -14.5174
LeftHand  -0.167845 3.53046 9.74948
RightShoulder  1.63479 2.75838 19.7315
RightArm  35.5372 -4.31195 53.2513
RightForeArm  5.68874 20.0143 7.47686
RightHand  -0.168172 -3.18574 -8.02542
LeftUpLeg  2.01449 5.53974 0.0419016
LeftLeg  4.65625 7.30333 1.67566
LeftFoot  -3.23443 0.462357 -6.2502
LeftToes  6.91183e-011 3.39355e-011 2.1261e-011
54
root  1.57751 40.3682 6.32011 -81.6456 -88.3586 78.5636
RightUpLeg  2.18412 -9.74336 -11.7433
RightLeg  0.0218863 -0.728095 -0.413346
RightFoot  4.32353 -1.71983 12.6721
RightToes  -1.16417e-010 0 -3.6325e-017
Spine  6.69681 0.135917 -0.818859
Spine1  4.76734 0.0202092 -0.0272776
HEad  -5.87079 0.548322 -2.12101
LeftShoulder1  2.78726 -6.60962 -21.1917
LeftArm  48.3442 2.76166 -54.15
LeftForeArm  -15.9542 -17.5037 -11.0731
LeftHand  -0.124755 3.72897 7.74374
RightShoulder  1.62747 2.71928 19.7819
RightArm  37.1248 -5.61906 51.5905
RightForeArm  10.1335 26.4981 4.81329
RightHand  -0.0533667 -4.64688 -4.66717
LeftUpLeg  1.90529 5.38441 -0.187765
LeftLeg  5.33561 7.12252 1.85203
LeftFoot  -3.68189 0.458359 -6.51386
LeftToes  6.91183e-011 3.39355e-011 2.1261e-011
55
root  1.57217 40.3188 6.44199 -69.7604 -88.5145 66.4636
RightUpLeg  1.99412 -9.46235 -11.5595
RightLeg  1.00924 -1.08341 -0.739207
RightFoot  3.69098 -1.71887 13.173
RightToes  -1.16417e-010 0 -3.6325e-017
Spine  7.01532 -0.187344 -1.05398
Spine1  5.11933 -0.619004 1.05695
HEad  -7.48612 1.83453 -3.13587
LeftShoulder1  2.82109 -6.88001 -20.7751
LeftArm  71.7751 1.17486 -54.1657
LeftForeArm  -22.3355 -24.8791 -6.04875
LeftHand  -0.0754019 3.9811 4.29213
RightShoulder  1.61091 2.69086 19.6233
RightArm  31.0339 -7.19821 49.6235
RightForeArm  23.667 34.2689 6.28684
RightHand  -0.0182632 -5.89213 -1.93596
LeftUpLeg  1.54789 5.4058 -0.171177
LeftLeg  6.48603 6.9274 2.06447
LeftFoot  -4.19351 0.428554 -6.44885
LeftToes  6.91183e-011 3.39355e-011 2.1261e-011
